# xmcd
#
# Track frame offsets: 
#        150
#        26756
#        61353
#        96192
#        127948
#        143495
#        160046
#        176245
#        191784
#        207808
#        223022
#        238644
#        255375
#        281943
#        327271
#
# Disc length: 4714 seconds
#
# Revision: 1
# Processed by: cddbd v1.5.2PL0 Copyright (c) Steve Scherf et al.
# Submitted via: ExactAudioCopy v0.99pb5
#
DISCID=dd12680f
DTITLE=Lester Young - The President Plays With The Oscar Perterson Tri
DTITLE=o
DYEAR=1952
DGENRE=Jazz
TTITLE0=Ad Lib Blues
TTITLE1=Just You, Just Me
TTITLE2=Tea For Two
TTITLE3=Indiana
TTITLE4=These Foolish Things
TTITLE5=I Can't Get Started
TTITLE6=Stardust
TTITLE7=On The Sunny Side Of The Street
TTITLE8=Almost Like Being In Love
TTITLE9=I Can't Give You Anything But Love
TTITLE10=There Will Never Be Another You
TTITLE11=I'm Confessin'
TTITLE12=Two To Tango
TTITLE13=St. Tropez
TTITLE14=Love Is Here To Stay
EXTD=YEAR: 1952
EXTT0=
EXTT1=
EXTT2=
EXTT3=
EXTT4=
EXTT5=
EXTT6=
EXTT7=
EXTT8=
EXTT9=
EXTT10=
EXTT11=
EXTT12=
EXTT13=
EXTT14=
PLAYORDER=
